<svg width="112" height="92" viewBox="0 0 112 92" fill="none" xmlns="http://www.w3.org/2000/svg">
<path d="M21.1971 89.9915C18.4832 92.7054 14.043 92.7285 11.6887 89.6975C6.40919 82.9005 2.75963 74.9433 1.06825 66.4402C-1.07686 55.656 0.0240882 44.4778 4.23189 34.3193C8.43969 24.1608 15.5654 15.4781 24.7078 9.36933C33.8502 3.26055 44.5988 -1.3112e-07 55.5943 0C66.5898 1.3112e-07 77.3384 3.26055 86.4809 9.36933C95.6233 15.4781 102.749 24.1608 106.957 34.3193C111.165 44.4778 112.266 55.656 110.12 66.4402C108.429 74.9433 104.779 82.9005 99.5 89.6975C97.1456 92.7285 92.7054 92.7054 89.9915 89.9915C87.2777 87.2777 87.3344 82.9043 89.5604 79.7779C92.9629 74.999 95.3342 69.5335 96.4889 63.7287C98.0977 55.6406 97.272 47.2569 94.1162 39.638C90.9603 32.0191 85.6161 25.5072 78.7592 20.9256C71.9024 16.344 63.841 13.8986 55.5943 13.8986C47.3477 13.8986 39.2863 16.344 32.4294 20.9256C25.5726 25.5072 20.2283 32.0191 17.0725 39.638C13.9166 47.2569 13.0909 55.6406 14.6998 63.7287C15.8544 69.5335 18.2258 74.999 21.6283 79.7779C23.8543 82.9043 23.911 87.2777 21.1971 89.9915Z" fill="white" fill-opacity="0.4"/>
</svg>
