<svg width="100" height="92" viewBox="0 0 100 92" fill="none" xmlns="http://www.w3.org/2000/svg">
<path d="M21.1971 89.9915C18.4832 92.7054 14.0431 92.7286 11.6888 89.6975C8.36492 85.4183 5.67676 80.6661 3.71925 75.5869C0.926513 68.3406 -0.317079 60.5895 0.0686095 52.8332C0.454298 45.077 2.46071 37.4875 5.95855 30.554C9.45639 23.6204 14.3681 17.4966 20.377 12.5772C26.386 7.65777 33.359 4.05183 40.8467 1.99175C48.3343 -0.0683183 56.1705 -0.53682 63.8503 0.616439C71.53 1.7697 78.883 4.51914 85.4353 8.68757C90.028 11.6094 94.156 15.1829 97.6947 19.2861C100.201 22.1926 99.3019 26.5407 96.1056 28.6653C92.9094 30.79 88.6334 29.8711 86.0079 27.0716C83.6258 24.5315 80.9286 22.2932 77.9751 20.4143C73.0608 17.2879 67.5461 15.2259 61.7863 14.3609C56.0265 13.496 50.1493 13.8473 44.5336 15.3924C38.9178 16.9374 33.6881 19.6419 29.1814 23.3315C24.6746 27.0211 20.9909 31.6139 18.3675 36.8141C15.7441 42.0142 14.2393 47.7063 13.95 53.5235C13.6608 59.3407 14.5935 65.154 16.688 70.5888C17.9469 73.8551 19.6086 76.9412 21.6283 79.7779C23.8543 82.9044 23.911 87.2777 21.1971 89.9915Z" fill="#99E39E"/>
</svg>
