<svg width="32" height="32" viewBox="0 0 32 32" fill="none" xmlns="http://www.w3.org/2000/svg">
<path d="M27.6985 24C28.6976 24 29.4923 23.3713 30.2057 22.4921C31.6664 20.6925 29.2683 19.2544 28.3536 18.5501C27.4239 17.8341 26.3857 17.4285 25.3332 17.3333M23.9999 14.6667C25.8408 14.6667 27.3332 13.1743 27.3332 11.3333C27.3332 9.49239 25.8408 8 23.9999 8" stroke="#99E39E" stroke-width="2" stroke-linecap="round"/>
<path d="M4.30108 24C3.302 24 2.50736 23.3713 1.79385 22.4921C0.333251 20.6925 2.73136 19.2544 3.64599 18.5501C4.57576 17.8341 5.61391 17.4285 6.66647 17.3333M7.33313 14.6667C5.49219 14.6667 3.9998 13.1743 3.9998 11.3333C3.9998 9.49239 5.49219 8 7.33313 8" stroke="#99E39E" stroke-width="2" stroke-linecap="round"/>
<path d="M10.7782 20.1481C9.41583 20.9905 5.84377 22.7106 8.0194 24.863C9.08217 25.9145 10.2658 26.6665 11.754 26.6665H20.2457C21.7338 26.6665 22.9174 25.9145 23.9802 24.863C26.1558 22.7106 22.5838 20.9905 21.2214 20.1481C18.0266 18.1726 13.9729 18.1726 10.7782 20.1481Z" stroke="#99E39E" stroke-width="2" stroke-linecap="round" stroke-linejoin="round"/>
<path d="M20.6665 10.0002C20.6665 12.5775 18.5772 14.6668 15.9998 14.6668C13.4225 14.6668 11.3331 12.5775 11.3331 10.0002C11.3331 7.42283 13.4225 5.3335 15.9998 5.3335C18.5772 5.3335 20.6665 7.42283 20.6665 10.0002Z" stroke="#99E39E" stroke-width="2"/>
</svg>
