<svg width="48" height="46" viewBox="0 0 48 46" fill="none" xmlns="http://www.w3.org/2000/svg">
<path d="M24.0016 9.62194C28.5701 9.62194 32.2735 7.46802 32.2735 4.81103C32.2735 2.15404 28.5701 0.00012207 24.0016 0.00012207C19.4332 0.00012207 15.7297 2.15404 15.7297 4.81103C15.7297 7.46802 19.4332 9.62194 24.0016 9.62194Z" fill="#E6007A"/>
<path d="M24.0016 45.8713C28.5701 45.8713 32.2735 43.7174 32.2735 41.0604C32.2735 38.4034 28.5701 36.2495 24.0016 36.2495C19.4332 36.2495 15.7297 38.4034 15.7297 41.0604C15.7297 43.7174 19.4332 45.8713 24.0016 45.8713Z" fill="#E6007A"/>
<path d="M12.4746 16.2822C14.7588 12.3259 14.744 8.04101 12.4415 6.71162C10.1389 5.38222 6.42066 7.51173 4.13644 11.468C1.85222 15.4243 1.86704 19.7092 4.16955 21.0386C6.47206 22.3679 10.1903 20.2384 12.4746 16.2822Z" fill="#E6007A"/>
<path d="M43.8613 34.4034C46.1455 30.4472 46.1319 26.163 43.831 24.8345C41.53 23.506 37.813 25.6362 35.5288 29.5925C33.2445 33.5488 33.2581 37.8329 35.5591 39.1614C37.86 40.4899 41.577 38.3597 43.8613 34.4034Z" fill="#E6007A"/>
<path d="M12.441 39.1602C14.7435 37.8308 14.7583 33.5459 12.4741 29.5897C10.1899 25.6334 6.47157 23.5039 4.16906 24.8333C1.86655 26.1627 1.85173 30.4476 4.13595 34.4038C6.42017 38.3601 10.1385 40.4896 12.441 39.1602Z" fill="#E6007A"/>
<path d="M43.8337 21.0395C46.1346 19.711 46.1482 15.4269 43.864 11.4706C41.5797 7.51433 37.8627 5.38409 35.5618 6.71259C33.2608 8.04108 33.2472 12.3252 35.5315 16.2815C37.8157 20.2378 41.5327 22.368 43.8337 21.0395Z" fill="#E6007A"/>
</svg>
