<svg width="32" height="32" viewBox="0 0 32 32" fill="none" xmlns="http://www.w3.org/2000/svg">
<path d="M22.6666 14.406C22.6666 13.9451 22.6666 13.7147 22.736 13.5093C22.9376 12.9126 23.469 12.681 24.0014 12.4385C24.6 12.1659 24.8992 12.0296 25.1957 12.0056C25.5324 11.9784 25.8696 12.0509 26.1573 12.2124C26.5388 12.4265 26.8048 12.8332 27.0772 13.164C28.335 14.6917 28.9638 15.4557 29.194 16.2981C29.3797 16.9779 29.3797 17.6888 29.194 18.3685C28.8584 19.5972 27.798 20.6272 27.013 21.5805C26.6116 22.0681 26.4108 22.312 26.1573 22.4543C25.8696 22.6157 25.5324 22.6883 25.1957 22.6611C24.8992 22.6371 24.6 22.5008 24.0014 22.2281C23.469 21.9856 22.9376 21.7541 22.736 21.1573C22.6666 20.952 22.6666 20.7216 22.6666 20.2607V14.406Z" stroke="#99E39E" stroke-width="2"/>
<path d="M9.33329 14.4061C9.33329 13.8259 9.317 13.3043 8.84784 12.8963C8.6772 12.7479 8.45096 12.6448 7.99851 12.4387C7.39997 12.1661 7.10071 12.0298 6.80417 12.0058C5.91451 11.9339 5.43585 12.5411 4.9228 13.1642C3.66496 14.692 3.03604 15.4559 2.80591 16.2983C2.6202 16.9781 2.6202 17.6891 2.80591 18.3688C3.14156 19.5975 4.20199 20.6273 4.98691 21.5808C5.48168 22.1817 5.95432 22.73 6.80417 22.6613C7.10071 22.6373 7.39997 22.5009 7.99851 22.2284C8.45096 22.0223 8.6772 21.9192 8.84784 21.7708C9.317 21.3628 9.33329 20.8413 9.33329 20.2609V14.4061Z" stroke="#99E39E" stroke-width="2"/>
<path d="M6.66663 12C6.66663 7.58172 10.8453 4 16 4C21.1546 4 25.3333 7.58172 25.3333 12" stroke="#99E39E" stroke-width="2" stroke-linecap="square" stroke-linejoin="round"/>
<path d="M25.3334 22.6665V23.7332C25.3334 26.0896 22.9455 27.9998 20 27.9998H17.3334" stroke="#99E39E" stroke-width="2" stroke-linecap="round" stroke-linejoin="round"/>
</svg>
