<svg width="37" height="7" viewBox="0 0 37 7" fill="none" xmlns="http://www.w3.org/2000/svg">
<path d="M5.8367 3.28832C5.8367 4.08274 5.6016 4.71506 5.13045 5.18716C4.59578 5.74837 3.89805 6.02898 3.04106 6.02898C2.2201 6.02898 1.52143 5.74458 0.947889 5.17578C0.373404 4.60604 0.0861604 3.90073 0.0861604 3.05891C0.0861604 2.21614 0.373404 1.51083 0.947889 0.942032C1.52143 0.372286 2.2201 0.0878884 3.04106 0.0878884C3.4487 0.0878884 3.83833 0.16752 4.20805 0.325835C4.57871 0.485098 4.87544 0.696501 5.09727 0.960992L4.59767 1.46153C4.22132 1.01124 3.70276 0.786561 3.04011 0.786561C2.44098 0.786561 1.92337 0.997017 1.48635 1.41793C1.04932 1.83884 0.831285 2.38583 0.831285 3.05796C0.831285 3.73009 1.04932 4.27708 1.48635 4.69799C1.92337 5.1189 2.44098 5.32936 3.04011 5.32936C3.67527 5.32936 4.2052 5.11795 4.62896 4.6942C4.90388 4.41833 5.06314 4.0344 5.1058 3.54239H3.04011V2.85888H5.79594C5.82438 3.00772 5.8367 3.15086 5.8367 3.28832Z" fill="white"/>
<path d="M10.2071 0.912698H7.61713V2.71579H9.95299V3.39929H7.61713V5.20238H10.2071V5.902H6.88623V0.214025H10.2071V0.912698Z" fill="white"/>
<path d="M13.2889 5.902H12.558V0.912698H10.9691V0.214025H14.8777V0.912698H13.2889V5.902Z" fill="white"/>
<path d="M17.7056 5.902V0.214025H18.4365V5.902H17.7056Z" fill="white"/>
<path d="M21.6778 5.902H20.9469V0.912698H19.3581V0.214025H23.2667V0.912698H21.6778V5.902Z" fill="white"/>
<path d="M30.6656 5.1673C30.1062 5.74178 29.4114 6.02902 28.58 6.02902C27.7486 6.02902 27.0537 5.74178 26.4953 5.1673C25.936 4.59281 25.6573 3.8894 25.6573 3.058C25.6573 2.22661 25.936 1.5232 26.4953 0.948712C27.0537 0.374227 27.7486 0.0860361 28.58 0.0860361C29.4066 0.0860361 30.1006 0.375174 30.6618 0.952504C31.223 1.52983 31.5036 2.23135 31.5036 3.058C31.5036 3.8894 31.2239 4.59281 30.6656 5.1673ZM27.0347 4.69045C27.4556 5.11705 27.9704 5.3294 28.58 5.3294C29.1895 5.3294 29.7052 5.1161 30.1252 4.69045C30.5461 4.26386 30.7575 3.71971 30.7575 3.058C30.7575 2.3963 30.5461 1.85215 30.1252 1.42555C29.7052 0.998956 29.1895 0.786606 28.58 0.786606C27.9704 0.786606 27.4556 0.999904 27.0347 1.42555C26.6148 1.85215 26.4034 2.3963 26.4034 3.058C26.4034 3.71971 26.6148 4.26386 27.0347 4.69045Z" fill="white"/>
<path d="M32.5293 5.902V0.214025H33.4186L36.1829 4.63832H36.2142L36.1829 3.54244V0.214025H36.9138V5.902H36.1507L33.2583 1.26251H33.2271L33.2583 2.35839V5.902H32.5293Z" fill="white"/>
<path d="M5.8367 3.28832C5.8367 4.08274 5.6016 4.71506 5.13045 5.18716C4.59578 5.74837 3.89805 6.02898 3.04106 6.02898C2.2201 6.02898 1.52143 5.74458 0.947889 5.17578C0.373404 4.60604 0.0861604 3.90073 0.0861604 3.05891C0.0861604 2.21614 0.373404 1.51083 0.947889 0.942032C1.52143 0.372286 2.2201 0.0878884 3.04106 0.0878884C3.4487 0.0878884 3.83833 0.16752 4.20805 0.325835C4.57871 0.485098 4.87544 0.696501 5.09727 0.960992L4.59767 1.46153C4.22132 1.01124 3.70276 0.786561 3.04011 0.786561C2.44098 0.786561 1.92337 0.997017 1.48635 1.41793C1.04932 1.83884 0.831285 2.38583 0.831285 3.05796C0.831285 3.73009 1.04932 4.27708 1.48635 4.69799C1.92337 5.1189 2.44098 5.32936 3.04011 5.32936C3.67527 5.32936 4.2052 5.11795 4.62896 4.6942C4.90388 4.41833 5.06314 4.0344 5.1058 3.54239H3.04011V2.85888H5.79594C5.82438 3.00772 5.8367 3.15086 5.8367 3.28832Z" stroke="white" stroke-width="0.169231" stroke-miterlimit="10"/>
<path d="M10.2071 0.912698H7.61713V2.71579H9.95299V3.39929H7.61713V5.20238H10.2071V5.902H6.88623V0.214025H10.2071V0.912698Z" stroke="white" stroke-width="0.169231" stroke-miterlimit="10"/>
<path d="M13.2889 5.902H12.558V0.912698H10.9691V0.214025H14.8777V0.912698H13.2889V5.902Z" stroke="white" stroke-width="0.169231" stroke-miterlimit="10"/>
<path d="M17.7056 5.902V0.214025H18.4365V5.902H17.7056Z" stroke="white" stroke-width="0.169231" stroke-miterlimit="10"/>
<path d="M21.6778 5.902H20.9469V0.912698H19.3581V0.214025H23.2667V0.912698H21.6778V5.902Z" stroke="white" stroke-width="0.169231" stroke-miterlimit="10"/>
<path d="M30.6656 5.1673C30.1062 5.74178 29.4114 6.02902 28.58 6.02902C27.7486 6.02902 27.0537 5.74178 26.4953 5.1673C25.936 4.59281 25.6573 3.8894 25.6573 3.058C25.6573 2.22661 25.936 1.5232 26.4953 0.948712C27.0537 0.374227 27.7486 0.0860361 28.58 0.0860361C29.4066 0.0860361 30.1006 0.375174 30.6618 0.952504C31.223 1.52983 31.5036 2.23135 31.5036 3.058C31.5036 3.8894 31.2239 4.59281 30.6656 5.1673ZM27.0347 4.69045C27.4556 5.11705 27.9704 5.3294 28.58 5.3294C29.1895 5.3294 29.7052 5.1161 30.1252 4.69045C30.5461 4.26386 30.7575 3.71971 30.7575 3.058C30.7575 2.3963 30.5461 1.85215 30.1252 1.42555C29.7052 0.998956 29.1895 0.786606 28.58 0.786606C27.9704 0.786606 27.4556 0.999904 27.0347 1.42555C26.6148 1.85215 26.4034 2.3963 26.4034 3.058C26.4034 3.71971 26.6148 4.26386 27.0347 4.69045Z" stroke="white" stroke-width="0.169231" stroke-miterlimit="10"/>
<path d="M32.5293 5.902V0.214025H33.4186L36.1829 4.63832H36.2142L36.1829 3.54244V0.214025H36.9138V5.902H36.1507L33.2583 1.26251H33.2271L33.2583 2.35839V5.902H32.5293Z" stroke="white" stroke-width="0.169231" stroke-miterlimit="10"/>
</svg>
