<svg width="12" height="15" viewBox="0 0 12 15" fill="none" xmlns="http://www.w3.org/2000/svg">
<path fill-rule="evenodd" clip-rule="evenodd" d="M0.860791 10.2666L0.858358 10.2699L0.856002 10.2732C0.724632 10.4601 0.430363 10.5151 0.200242 10.3518C0.0160288 10.221 -0.0393412 9.92974 0.117531 9.69952C0.351591 9.39975 0.52158 9.04927 0.633232 8.70667C0.749471 8.35 0.803537 7.9447 0.801441 7.5472C0.799344 7.1497 0.741006 6.74501 0.621012 6.3896C0.505752 6.04822 0.332076 5.69959 0.0948667 5.40235C-0.0644249 5.17383 -0.0121305 4.88196 0.170694 4.74927C0.399079 4.5835 0.693911 4.63526 0.827244 4.82072L0.829635 4.82405L0.832103 4.82732C1.12734 5.2185 1.3695 5.65313 1.51421 6.07954C1.66652 6.58116 1.76354 7.0664 1.76605 7.54201C1.76869 8.04252 1.72108 8.51625 1.53828 8.98259C1.33919 9.49049 1.1464 9.87969 0.860791 10.2666ZM2.99552 11.1955L3.00129 11.1873L3.00658 11.1788C3.661 10.1253 4.03848 8.85411 4.0315 7.52983C4.02451 6.20588 3.63384 4.93912 2.96865 3.8929C2.8245 3.66321 2.88926 3.39162 3.13226 3.21525C3.29545 3.0968 3.60181 3.13873 3.78358 3.3835C4.5346 4.58078 4.98822 6.02811 4.99611 7.52464C5.00427 9.07227 4.56629 10.4726 3.82726 11.6787C3.6563 11.9151 3.39459 11.9814 3.16891 11.8474C2.92425 11.6673 2.87953 11.3605 2.99552 11.1955ZM6.82652 1.80968L6.83297 1.82247L6.84043 1.8347C7.85808 3.50179 8.42357 5.42474 8.43455 7.50616C8.44552 9.58662 7.90085 11.5147 6.90172 13.1921C6.74855 13.4396 6.48995 13.5094 6.22779 13.3868C5.98919 13.2305 5.9251 12.9716 6.04974 12.7101C6.89946 11.1939 7.42784 9.40722 7.41784 7.51163C7.40789 5.62448 6.91681 3.84069 5.99316 2.32442C5.86819 2.06552 5.93008 1.80766 6.16585 1.64963C6.45031 1.51309 6.72742 1.61315 6.82652 1.80968ZM9.83988 0.223045L9.84429 0.231784L9.84917 0.240263C11.0824 2.38216 11.8069 4.83099 11.8209 7.48796C11.8349 10.1422 11.1377 12.5963 9.92947 14.7498C9.77602 14.9944 9.51863 15.0629 9.25771 14.9409C9.01987 14.7852 8.95544 14.5274 9.07849 14.2667C10.2425 12.2707 10.8693 9.95832 10.8563 7.49314C10.8432 5.02161 10.1369 2.71817 9.00855 0.741946C8.86719 0.453458 8.96682 0.170908 9.16417 0.0704325C9.45385 -0.0770468 9.73904 0.0230524 9.83988 0.223045Z" fill="white"/>
</svg>
