<svg width="1218" height="203" viewBox="0 0 1218 203" fill="none" xmlns="http://www.w3.org/2000/svg">
<path d="M27.0468 63.9608H14.4702H0.750308V201.979H1217.25V77.4008L1137.79 36.5639L1092.06 43.284L1062.32 36.5639L1029.75 43.284L986.655 10.0782L934.849 43.284L858.817 51.5547L821.659 36.5639L768.494 47.9362H734.765L681.029 31.3948L650.017 27.0646L631.295 12.2687L611.859 0.896364L563.267 36.5639H540.401L521.536 44.3178H494.096L464.37 56.7239L418.636 51.5547L379.763 59.8254L288.297 44.3178L233.346 10.9964L203.119 40.6993L140.236 56.7239H97.9326L44.7684 66.5454L27.0468 63.9608Z" stroke="#99E39E" stroke-width="1.5"/>
</svg>
