<svg width="37" height="39" viewBox="0 0 37 39" fill="none" xmlns="http://www.w3.org/2000/svg">
<g filter="url(#filter0_d_1_133)">
<path d="M5.1034 15.6294C9.53256 15.6294 17.7268 14.2779 18.0392 2.00769C18.0351 1.75332 18.0384 1.5088 18.0484 1.27586C18.0484 1.52402 18.0453 1.76794 18.0392 2.00769C18.1178 6.86712 20.9114 15.324 31.8966 15.324C27.615 15.5214 19.1814 18.5523 18.6745 28.9836C18.6789 29.3346 18.6703 29.669 18.6505 29.9829C18.6505 29.6425 18.6586 29.3094 18.6745 28.9836C18.6115 23.9841 15.9053 15.6294 5.1034 15.6294Z" fill="url(#paint0_linear_1_133)"/>
</g>
<defs>
<filter id="filter0_d_1_133" x="-4.47325e-05" y="4.61912e-06" width="37.0001" height="38.9139" filterUnits="userSpaceOnUse" color-interpolation-filters="sRGB">
<feFlood flood-opacity="0" result="BackgroundImageFix"/>
<feColorMatrix in="SourceAlpha" type="matrix" values="0 0 0 0 0 0 0 0 0 0 0 0 0 0 0 0 0 0 127 0" result="hardAlpha"/>
<feOffset dy="3.7537"/>
<feGaussianBlur stdDeviation="2.50246"/>
<feComposite in2="hardAlpha" operator="out"/>
<feColorMatrix type="matrix" values="0 0 0 0 0 0 0 0 0 0 0 0 0 0 0 0 0 0 0.25 0"/>
<feBlend mode="normal" in2="BackgroundImageFix" result="effect1_dropShadow_1_133"/>
<feBlend mode="normal" in="SourceGraphic" in2="effect1_dropShadow_1_133" result="shape"/>
</filter>
<linearGradient id="paint0_linear_1_133" x1="9.56893" y1="7.6552" x2="21.3707" y2="21.0518" gradientUnits="userSpaceOnUse">
<stop offset="0.396817" stop-color="#EAEAEA"/>
<stop offset="1" stop-color="#5F5F5F"/>
</linearGradient>
</defs>
</svg>
