<svg width="1215" height="196" viewBox="0 0 1215 196" fill="none" xmlns="http://www.w3.org/2000/svg">
<path d="M26.2641 61.4246H13.703H0V195.854H1215V74.515L1135.64 34.7401L1089.96 41.2854L1060.27 34.7401L1027.73 41.2854L986.5 8.49594L932.948 41.2854L857.009 49.341L819.897 34.7401L766.798 45.8166H733.11L679.441 29.7053L648 25.935L629.768 11.0766L610.355 0L561.823 34.7401H538.985L520.144 42.2923H492.737L463.048 54.3759L417.371 49.341L378.546 57.3967L287.193 42.2923L232.5 10.7317L202.12 38.7679L139.314 54.3759H97.0626L43.9638 63.9419L26.2641 61.4246Z" fill="url(#paint0_linear_1_951)"/>
<defs>
<linearGradient id="paint0_linear_1_951" x1="607.5" y1="-877.7" x2="607.5" y2="168.742" gradientUnits="userSpaceOnUse">
<stop stop-color="#99E39E"/>
<stop offset="1" stop-color="#99E39E" stop-opacity="0"/>
</linearGradient>
</defs>
</svg>
